<?xml version="1.0" standalone="no"?>
<!DOCTYPE svg PUBLIC "-//W3C//DTD SVG 20010904//EN"
 "http://www.w3.org/TR/2001/REC-SVG-20010904/DTD/svg10.dtd">
<svg version="1.0" xmlns="http://www.w3.org/2000/svg"
 width="260.000000pt" height="260.000000pt" viewBox="0 0 260.000000 260.000000"
 preserveAspectRatio="xMidYMid meet">
<metadata>
Created by potrace 1.11, written by Peter Selinger 2001-2013
</metadata>
<g transform="translate(0.000000,260.000000) scale(0.100000,-0.100000)"
fill="#000000" stroke="none">
<path d="M0 1300 l0 -1300 1300 0 1300 0 0 1300 0 1300 -1300 0 -1300 0 0
-1300z m2485 0 l1 -1186 -1186 1 -1185 0 -1 1180 c0 649 1 1182 2 1185 1 3
535 5 1186 5 l1183 0 0 -1185z"/>
<path d="M1284 2092 l-72 -3 -25 -72 c-13 -40 -49 -144 -80 -232 -60 -174
-111 -323 -300 -870 -69 -198 -128 -370 -131 -382 -7 -23 -6 -23 92 -23 l99 0
69 211 69 211 304 -1 c167 0 304 -2 305 -3 1 -2 32 -96 69 -210 l68 -208 100
0 c54 0 99 1 99 3 0 1 -13 41 -29 87 -17 47 -60 171 -96 275 -82 236 -161 462
-185 535 -10 30 -53 154 -95 275 -42 121 -90 261 -107 312 -36 104 -30 100
-154 95z m150 -630 l114 -339 -238 0 -238 0 12 38 c53 181 222 663 229 653 4
-7 58 -165 121 -352z"/>
</g>
</svg>
